<svg width="20" height="20" viewBox="0 0 20 20" fill="none" xmlns="http://www.w3.org/2000/svg">
<path d="M10.0006 8.91684C10.3688 8.91684 10.6673 9.21532 10.6673 9.58351V12.5835C10.6673 12.9517 10.3688 13.2502 10.0006 13.2502C9.63242 13.2502 9.33394 12.9517 9.33394 12.5835V9.58351C9.33394 9.21532 9.63242 8.91684 10.0006 8.91684Z" fill="#FF6F03"/>
<path d="M10.0006 7.91682C10.3688 7.91682 10.6673 7.61835 10.6673 7.25016C10.6673 6.88197 10.3688 6.58349 10.0006 6.58349C9.63242 6.58349 9.33394 6.88197 9.33394 7.25016C9.33394 7.61835 9.63242 7.91682 10.0006 7.91682Z" fill="#FF6F03"/>
<path fill-rule="evenodd" clip-rule="evenodd" d="M10.0007 16.6668C13.6825 16.6668 16.6673 13.6821 16.6673 10.0002C16.6673 6.31826 13.6825 3.3335 10.0007 3.3335C6.31875 3.3335 3.33398 6.31826 3.33398 10.0002C3.33398 13.6821 6.31875 16.6668 10.0007 16.6668ZM10.0007 15.4168C12.9922 15.4168 15.4173 12.9917 15.4173 10.0002C15.4173 7.00862 12.9922 4.5835 10.0007 4.5835C7.00911 4.5835 4.58398 7.00862 4.58398 10.0002C4.58398 12.9917 7.00911 15.4168 10.0007 15.4168Z" fill="#FF6F03"/>
</svg>
