<svg width="24" height="24" viewBox="0 0 24 24" fill="none" xmlns="http://www.w3.org/2000/svg">
<path fill-rule="evenodd" clip-rule="evenodd" d="M7.25 4C5.45507 4 4 5.45507 4 7.25V12.75C4 14.5449 5.45507 16 7.25 16H8V16.8C8 18.5673 9.43269 20 11.2 20H16.8C18.5673 20 20 18.5673 20 16.8V11.2C20 9.43269 18.5673 8 16.8 8H16V7.25C16 5.45507 14.5449 4 12.75 4H7.25ZM14.5 8V7.25C14.5 6.2835 13.7165 5.5 12.75 5.5H7.25C6.2835 5.5 5.5 6.2835 5.5 7.25V12.75C5.5 13.7165 6.2835 14.5 7.25 14.5H8V11.2C8 9.43269 9.43269 8 11.2 8H14.5ZM11.2 9.5H16.8C17.7389 9.5 18.5 10.2611 18.5 11.2V16.8C18.5 17.7389 17.7389 18.5 16.8 18.5H11.2C10.2611 18.5 9.5 17.7389 9.5 16.8V11.2C9.5 10.2611 10.2611 9.5 11.2 9.5Z" fill="#333333"/>
</svg>
