<svg width="24" height="24" viewBox="0 0 24 24" fill="none" xmlns="http://www.w3.org/2000/svg">
<path d="M12 10.7C12.4418 10.7 12.8 11.0582 12.8 11.5V15.1C12.8 15.5418 12.4418 15.9 12 15.9C11.5581 15.9 11.2 15.5418 11.2 15.1V11.5C11.2 11.0582 11.5581 10.7 12 10.7Z" fill="#333333"/>
<path d="M12 9.49999C12.4418 9.49999 12.8 9.14182 12.8 8.69999C12.8 8.25817 12.4418 7.89999 12 7.89999C11.5581 7.89999 11.2 8.25817 11.2 8.69999C11.2 9.14182 11.5581 9.49999 12 9.49999Z" fill="#333333"/>
<path fill-rule="evenodd" clip-rule="evenodd" d="M12 20C16.4183 20 20 16.4183 20 12C20 7.58172 16.4183 4 12 4C7.58172 4 4 7.58172 4 12C4 16.4183 7.58172 20 12 20ZM12 18.5C15.5899 18.5 18.5 15.5899 18.5 12C18.5 8.41015 15.5899 5.5 12 5.5C8.41015 5.5 5.5 8.41015 5.5 12C5.5 15.5899 8.41015 18.5 12 18.5Z" fill="#333333"/>
</svg>
