<svg width="28" height="28" viewBox="0 0 28 28" fill="none" xmlns="http://www.w3.org/2000/svg">
<path d="M6.08988 20.7065C5.74817 21.0482 5.74817 21.6023 6.08988 21.944C6.43159 22.2857 6.98561 22.2857 7.32732 21.944L14 15.2713L20.6731 21.9444C21.0148 22.2861 21.5688 22.2861 21.9105 21.9444C22.2522 21.6027 22.2522 21.0487 21.9105 20.707L15.2374 14.0339L21.9126 7.35871C22.2543 7.017 22.2543 6.46298 21.9126 6.12127C21.5709 5.77956 21.0168 5.77956 20.6751 6.12127L14 12.7964L7.32526 6.12171C6.98355 5.78 6.42953 5.78 6.08782 6.12171C5.74612 6.46342 5.74612 7.01744 6.08782 7.35915L12.7625 14.0339L6.08988 20.7065Z" fill="#333333"/>
</svg>
