<svg width="24" height="24" viewBox="0 0 24 24" fill="none" xmlns="http://www.w3.org/2000/svg">
<path d="M12 12.5C12.4142 12.5 12.75 12.8358 12.75 13.25V14.75C12.75 15.1642 12.4142 15.5 12 15.5C11.5858 15.5 11.25 15.1642 11.25 14.75V13.25C11.25 12.8358 11.5858 12.5 12 12.5Z" fill="#333333"/>
<path fill-rule="evenodd" clip-rule="evenodd" d="M10.499 4C8.98024 4 7.74902 5.23122 7.74902 6.75V8.01035C6.20961 8.13785 5 9.42767 5 11V17C5 18.6569 6.34315 20 8 20H16C17.6569 20 19 18.6569 19 17V11C19 9.42772 17.7905 8.13794 16.2511 8.01036V6.75C16.2511 5.23122 15.0199 4 13.5011 4H10.499ZM14.7511 8V6.75C14.7511 6.05965 14.1915 5.5 13.5011 5.5H10.499C9.80867 5.5 9.24902 6.05964 9.24902 6.75V8H14.7511ZM16 9.5H8C7.17157 9.5 6.5 10.1716 6.5 11V17C6.5 17.8284 7.17157 18.5 8 18.5H16C16.8284 18.5 17.5 17.8284 17.5 17V11C17.5 10.1716 16.8284 9.5 16 9.5Z" fill="#333333"/>
</svg>
