<svg width="24" height="24" viewBox="0 0 24 24" fill="none" xmlns="http://www.w3.org/2000/svg">
<path d="M19.25 4C18.8358 4 18.5 4.33579 18.5 4.75V19.25C18.5 19.6642 18.8358 20 19.25 20C19.6642 20 20 19.6642 20 19.25V4.75C20 4.33579 19.6642 4 19.25 4Z" fill="#fff"/>
<path d="M11.6924 7.5806C11.3995 7.28771 10.9246 7.28771 10.6317 7.5806C10.3388 7.87349 10.3388 8.34837 10.6317 8.64126L13.2405 11.25H4.75C4.33579 11.25 4 11.5858 4 12C4 12.4142 4.33579 12.75 4.75 12.75H13.2405L10.6317 15.3588C10.3388 15.6516 10.3388 16.1265 10.6317 16.4194C10.9246 16.7123 11.3995 16.7123 11.6924 16.4194L15.5775 12.5342L15.5815 12.5303C15.7004 12.4114 15.771 12.2625 15.7934 12.108C15.8123 11.977 15.7966 11.842 15.7462 11.7178C15.7096 11.6275 15.6547 11.5429 15.5815 11.4697L15.5781 11.4663L11.6924 7.5806Z" fill="#fff"/>
</svg>
