<svg width="28" height="28" viewBox="0 0 28 28" fill="none" xmlns="http://www.w3.org/2000/svg">
<path d="M4.66675 7.875C4.66675 7.39175 5.0585 7 5.54175 7H22.4584C22.9417 7 23.3334 7.39175 23.3334 7.875C23.3334 8.35825 22.9417 8.75 22.4584 8.75H5.54175C5.0585 8.75 4.66675 8.35825 4.66675 7.875Z" fill="#333333"/>
<path d="M4.66675 20.125C4.66675 19.6418 5.0585 19.25 5.54175 19.25H22.4584C22.9417 19.25 23.3334 19.6418 23.3334 20.125C23.3334 20.6082 22.9417 21 22.4584 21H5.54175C5.0585 21 4.66675 20.6082 4.66675 20.125Z" fill="#333333"/>
<path d="M7.87508 13.125C7.39183 13.125 7.00008 13.5168 7.00008 14C7.00008 14.4832 7.39183 14.875 7.87508 14.875H20.1251C20.6083 14.875 21.0001 14.4832 21.0001 14C21.0001 13.5168 20.6083 13.125 20.1251 13.125H7.87508Z" fill="#333333"/>
</svg>
