<svg width="24" height="24" viewBox="0 0 24 24" fill="none" xmlns="http://www.w3.org/2000/svg">
<path fill-rule="evenodd" clip-rule="evenodd" d="M15.5 7.5C15.5 9.433 13.933 11 12 11C10.067 11 8.5 9.433 8.5 7.5C8.5 5.567 10.067 4 12 4C13.933 4 15.5 5.567 15.5 7.5ZM14 7.5C14 8.60457 13.1046 9.5 12 9.5C10.8954 9.5 10 8.60457 10 7.5C10 6.39543 10.8954 5.5 12 5.5C13.1046 5.5 14 6.39543 14 7.5Z" fill="#333333"/>
<path fill-rule="evenodd" clip-rule="evenodd" d="M11.8548 12C9.23138 12 6.8188 13.4637 5.40209 15.8361C4.87541 16.7182 4.89872 17.7433 5.2831 18.5451C5.66809 19.3482 6.45856 20 7.49821 20H16.5017C17.5414 20 18.3318 19.3482 18.7168 18.5451C19.1012 17.7433 19.1245 16.7182 18.5978 15.8361C17.1811 13.4637 14.7685 12 12.1452 12H11.8548ZM6.68995 16.6052C7.8628 14.6411 9.80974 13.5 11.8548 13.5H12.1452C14.1902 13.5 16.1371 14.6411 17.31 16.6052C17.5565 17.0181 17.5507 17.5076 17.3642 17.8967C17.1783 18.2846 16.856 18.5 16.5017 18.5H7.49821C7.14388 18.5 6.82164 18.2846 6.63572 17.8967C6.4492 17.5076 6.4434 17.0181 6.68995 16.6052Z" fill="#333333"/>
</svg>
