<svg width="24" height="24" viewBox="0 0 24 24" fill="none" xmlns="http://www.w3.org/2000/svg">
<path d="M8.5 8.75C8.5 8.61193 8.61193 8.5 8.75 8.5H15.25C15.3881 8.5 15.5 8.61193 15.5 8.75C15.5 8.88807 15.3881 9 15.25 9H8.75C8.61193 9 8.5 8.88807 8.5 8.75ZM8.5 11.75C8.5 11.6119 8.61193 11.5 8.75 11.5H11.25C11.3881 11.5 11.5 11.6119 11.5 11.75C11.5 11.8881 11.3881 12 11.25 12H8.75C8.61193 12 8.5 11.8881 8.5 11.75ZM5.5 7C5.5 5.61929 6.61929 4.5 8 4.5H16C17.3807 4.5 18.5 5.61929 18.5 7V17C18.5 18.3807 17.3807 19.5 16 19.5H8C6.61929 19.5 5.5 18.3807 5.5 17V7ZM16 5H8C6.89543 5 6 5.89543 6 7V17C6 18.1046 6.89543 19 8 19H16C17.1046 19 18 18.1046 18 17V7C18 5.89543 17.1046 5 16 5Z" fill="#D9D9D9" stroke="#333333"/>
</svg>
